<svg width="221" height="67" viewBox="0 0 221 67" fill="none" xmlns="http://www.w3.org/2000/svg">
<path d="M17.3262 53.6904C20.8701 53.6905 23.743 56.5635 23.7432 60.1074C23.7432 63.6514 20.8702 66.5244 17.3262 66.5244C13.7821 66.5244 10.9092 63.6515 10.9092 60.1074C10.9093 56.5635 13.7822 53.6904 17.3262 53.6904ZM3.5293 59.4639C5.47841 59.4639 7.0584 61.0441 7.05859 62.9932C7.05859 64.9424 5.47853 66.5225 3.5293 66.5225C1.58011 66.5224 0 64.9424 0 62.9932C0.000196866 61.0441 1.58023 59.4639 3.5293 59.4639ZM59.8926 0C65.0904 0 69.3044 4.21339 69.3047 9.41113C69.3047 14.3921 65.4349 18.4671 60.5381 18.7988C55.4158 20.7811 53.9296 23.2614 54.4297 29.3008C55.5724 30.7417 56.2558 32.5631 56.2559 34.5449C56.2559 39.2111 52.4737 42.9939 47.8076 42.9941C47.3709 42.9941 46.9414 42.9614 46.5225 42.8975C42.8249 44.2641 41.4652 46.0354 40.2383 49.5566C40.498 50.3165 40.6416 51.1307 40.6416 51.9785C40.6415 56.1131 37.2899 59.4648 33.1553 59.4648C29.0206 59.4648 25.6691 56.1131 25.6689 51.9785C25.6689 47.8438 29.0205 44.4922 33.1553 44.4922C34.3616 44.4922 35.5005 44.7783 36.5098 45.2852C39.3884 44.0878 40.4763 42.728 40.7373 39.1709C39.866 37.8419 39.3584 36.2528 39.3584 34.5449C39.3586 29.8788 43.1414 26.0957 47.8076 26.0957C47.9247 26.0957 48.0413 26.0998 48.1572 26.1045C52.3908 23.0366 53.53 20.6428 52.2461 14.8955C51.1365 13.3511 50.4805 11.458 50.4805 9.41113C50.4807 4.21339 54.6948 1.08237e-05 59.8926 0Z" fill="url(#paint0_linear_6_56)"/>
<path d="M207.01 66.524C205.082 66.524 203.241 66.261 201.488 65.7351C199.735 65.1741 198.192 64.3326 196.86 63.2107C195.562 62.0887 194.528 60.6862 193.757 59.0033C192.985 57.3203 192.6 55.3393 192.6 53.0603C192.6 50.7813 192.985 48.8003 193.757 47.1174C194.528 45.4344 195.562 44.032 196.86 42.91C198.192 41.788 199.735 40.9641 201.488 40.4382C203.241 39.8772 205.082 39.5967 207.01 39.5967C208.938 39.5967 210.744 39.8772 212.427 40.4382C214.145 40.9991 215.635 41.8406 216.897 42.9626C218.16 44.0495 219.159 45.4344 219.895 47.1174C220.631 48.8003 221 50.7813 221 53.0603C221 53.446 221 53.709 221 53.8492C221 53.9544 220.964 54.1823 220.894 54.5329H197.964C198.35 57.1625 199.367 59.126 201.014 60.4233C202.662 61.7205 204.696 62.3517 207.115 62.3166C209.149 62.2815 210.919 61.8959 212.427 61.1596C213.97 60.4233 215.109 59.0734 215.845 57.1099L220.579 57.7411C220.088 59.3188 219.387 60.6687 218.475 61.7907C217.599 62.9126 216.564 63.8242 215.372 64.5255C214.18 65.1916 212.865 65.7 211.428 66.0507C210.025 66.3662 208.553 66.524 207.01 66.524ZM207.115 43.6463C205.958 43.6463 204.801 43.8742 203.644 44.33C202.487 44.7507 201.47 45.4169 200.594 46.3285C199.717 47.205 199.016 48.327 198.49 49.6944C197.999 51.0618 197.824 52.6747 197.964 54.5329C198.174 53.8317 198.402 53.2707 198.648 52.85C198.928 52.4292 199.244 52.1137 199.594 51.9033C199.98 51.6929 200.401 51.5527 200.857 51.4826C201.347 51.4124 201.908 51.3774 202.54 51.3774H216.108C215.723 48.6776 214.723 46.7317 213.111 45.5396C211.533 44.3125 209.534 43.6814 207.115 43.6463Z" fill="white"/>
<path d="M184.45 28.6572H189.604V66.2082H184.45V28.6572Z" fill="white"/>
<path d="M175.615 28.6572H180.769V66.2082H175.615V28.6572Z" fill="white"/>
<path d="M155.195 44.5394V39.7009H156.195C156.791 39.7009 157.404 39.4555 158.035 38.9646C158.701 38.4738 159.298 37.8427 159.823 37.0713C160.349 36.3 160.788 35.4409 161.138 34.4943C161.489 33.5476 161.664 32.6185 161.664 31.7069L166.871 31.6543C166.801 33.1269 166.45 34.5293 165.819 35.8617C165.188 37.159 164.259 38.2108 163.032 39.0172C162.576 39.2977 162.015 39.5081 161.349 39.6483C160.718 39.7535 160.139 39.8587 159.613 39.9639V40.0691C160.139 39.9639 160.718 39.8762 161.349 39.8061C162.015 39.736 162.611 39.7009 163.137 39.7009H172.446V44.5394H165.766V58.529C165.766 59.686 166.047 60.4574 166.608 60.8431C167.169 61.1937 167.853 61.369 168.659 61.369H173.708V66.2075H168.922C167.204 66.2075 165.801 66.0497 164.715 65.7342C163.628 65.3835 162.786 64.8576 162.19 64.1564C161.594 63.4552 161.173 62.5611 160.928 61.4742C160.718 60.3522 160.612 59.0374 160.612 57.5297V44.5394H155.195Z" fill="white"/>
<path d="M133.294 57.7409C133.54 59.5291 134.328 60.7737 135.661 61.475C136.993 62.1411 138.834 62.4742 141.183 62.4742C143.707 62.4742 145.618 62.1061 146.916 61.3698C148.213 60.6335 148.861 59.4063 148.861 57.6883C148.861 56.8468 148.353 56.2508 147.336 55.9002C146.355 55.5496 145.127 55.2866 143.655 55.1113C142.182 54.9009 140.569 54.7081 138.816 54.5328C137.063 54.3224 135.45 53.9893 133.978 53.5335C132.505 53.0777 131.261 52.394 130.244 51.4824C129.262 50.5708 128.771 49.3086 128.771 47.6958C128.771 46.4335 128.999 45.3642 129.455 44.4876C129.946 43.576 130.559 42.8222 131.296 42.2262C132.032 41.6301 132.856 41.1568 133.767 40.8062C134.714 40.4205 135.643 40.14 136.555 39.9647C137.466 39.7894 138.343 39.6842 139.184 39.6491C140.026 39.579 140.71 39.5439 141.236 39.5439C142.252 39.5439 143.409 39.6491 144.707 39.8595C146.039 40.0348 147.301 40.3854 148.493 40.9113C149.72 41.4373 150.772 42.156 151.649 43.0676C152.56 43.9792 153.121 45.1713 153.332 46.6439L148.651 47.3276C148.371 45.855 147.617 44.8733 146.39 44.3824C145.198 43.8565 143.444 43.5936 141.13 43.5936C138.746 43.5936 136.941 43.8916 135.713 44.4876C134.521 45.0837 133.925 46.2056 133.925 47.8535C133.925 48.695 134.416 49.3086 135.398 49.6943C136.415 50.0449 137.659 50.3254 139.132 50.5358C140.604 50.7461 142.217 50.939 143.97 51.1143C145.723 51.2896 147.336 51.6051 148.809 52.0609C150.281 52.5167 151.509 53.1829 152.49 54.0594C153.507 54.936 154.016 56.1807 154.016 57.7935C154.016 59.792 153.49 61.3873 152.438 62.5794C151.421 63.7364 150.194 64.613 148.756 65.209C147.354 65.77 145.934 66.1206 144.496 66.2609C143.059 66.4362 141.919 66.5238 141.078 66.5238C140.587 66.5238 139.938 66.4888 139.132 66.4187C138.325 66.3485 137.466 66.2258 136.555 66.0505C135.643 65.8401 134.714 65.5596 133.767 65.209C132.856 64.8584 131.997 64.3851 131.19 63.789C130.419 63.193 129.77 62.4742 129.245 61.6327C128.719 60.7913 128.403 59.792 128.298 58.635L133.294 57.7409Z" fill="white"/>
<path d="M109.43 66.5236C107.536 66.5236 105.959 66.1554 104.696 65.4191C103.434 64.6828 102.435 63.7011 101.699 62.474C100.962 61.2468 100.436 59.8268 100.121 58.214C99.8404 56.6011 99.7002 54.9357 99.7002 53.2177V39.8066H104.854V53.2177C104.854 56.0226 105.38 58.0737 106.432 59.371C107.519 60.6683 109.132 61.3169 111.271 61.3169C111.832 61.3169 112.533 61.1767 113.374 60.8962C114.216 60.5806 115.022 60.0021 115.793 59.1606C116.565 58.3192 117.213 57.1446 117.739 55.6369C118.3 54.0942 118.581 52.0957 118.581 49.6414V39.8066H123.735V66.1028H118.581V61.054C118.581 60.493 118.616 59.8969 118.686 59.2658C118.791 58.6347 118.896 58.0562 119.002 57.5303L118.896 57.4777C118.651 58.7048 118.283 59.8794 117.792 61.0014C117.301 62.0883 116.67 63.0525 115.899 63.894C115.127 64.7004 114.198 65.349 113.111 65.8399C112.059 66.2957 110.832 66.5236 109.43 66.5236Z" fill="white"/>
<path d="M69.9639 29.3926H75.1179V44.4866C75.1179 45.0826 75.0653 45.7313 74.9601 46.4325C74.855 47.1337 74.7147 47.7824 74.5394 48.3784L74.6446 48.431C74.8199 47.835 75.0127 47.2039 75.2231 46.5377C75.4335 45.8365 75.714 45.2404 76.0646 44.7496C77.2567 42.8913 78.7643 41.5589 80.5875 40.7525C82.4458 39.9111 84.3742 39.4903 86.3727 39.4903C88.1258 39.4903 89.6334 39.8409 90.8956 40.5422C92.1929 41.2434 93.2623 42.1901 94.1038 43.3822C94.9803 44.5392 95.629 45.9066 96.0497 47.4844C96.4704 49.0271 96.6808 50.6574 96.6808 52.3755V66.2072H91.5267V52.3755C91.5267 49.9211 90.9482 47.9577 89.7912 46.4851C88.6692 44.9775 87.0038 44.2236 84.7949 44.2236C84.0937 44.2236 83.1996 44.3989 82.1127 44.7496C81.0258 45.0651 79.9564 45.6787 78.9046 46.5903C77.8878 47.4668 76.9937 48.694 76.2224 50.2718C75.4861 51.8495 75.1179 53.8831 75.1179 56.3725V66.2072H69.9639V29.3926Z" fill="white"/>
<defs>
<linearGradient id="paint0_linear_6_56" x1="64.0641" y1="4.52583e-06" x2="-0.000473125" y2="66.524" gradientUnits="userSpaceOnUse">
<stop stop-color="#FD9700"/>
<stop offset="0.317308" stop-color="#FF2958"/>
<stop offset="0.620548" stop-color="#FF3D14"/>
<stop offset="0.888956" stop-color="#FF3B1D"/>
</linearGradient>
</defs>
</svg>
