<svg width="1045" height="311" viewBox="0 0 1045 311" fill="none" xmlns="http://www.w3.org/2000/svg">
<path d="M16.5 278C25.6127 278 33 285.387 33 294.5C33 303.613 25.6127 311 16.5 311C7.3873 311 0 303.613 0 294.5C0 285.387 7.3873 278 16.5 278ZM81 251C97.5685 251 111 264.431 111 281C111 297.569 97.5685 311 81 311C64.4315 311 51 297.569 51 281C51 264.431 64.4315 251 81 251ZM280 0C304.301 0 324 19.6995 324 44C324 67.3067 305.879 86.3773 282.957 87.8984C259.061 97.1603 252.123 108.763 254.456 136.965C259.804 143.704 263 152.228 263 161.5C263 183.315 245.315 201 223.5 201C221.455 201 219.447 200.844 217.486 200.545C200.211 206.932 193.854 215.208 188.12 231.658C189.338 235.215 190 239.03 190 243C190 262.33 174.33 278 155 278C135.67 278 120 262.33 120 243C120 223.67 135.67 208 155 208C160.644 208 165.975 209.337 170.695 211.71C184.142 206.115 189.229 199.75 190.451 183.138C186.374 176.922 184 169.489 184 161.5C184 139.685 201.685 122 223.5 122C224.05 122 224.596 122.014 225.141 122.036C244.921 107.702 250.253 96.5111 244.266 69.6738C239.065 62.4481 236 53.5824 236 44C236 19.6995 255.699 0 280 0Z" fill="url(#paint0_linear_3_33)"/>
<path d="M978.896 311C969.794 311 961.105 309.759 952.83 307.276C944.555 304.628 937.273 300.656 930.984 295.36C924.861 290.064 919.978 283.444 916.337 275.5C912.696 267.556 910.876 258.205 910.876 247.448C910.876 236.69 912.696 227.34 916.337 219.396C919.978 211.452 924.861 204.831 930.984 199.535C937.273 194.239 944.555 190.35 952.83 187.868C961.105 185.22 969.794 183.896 978.896 183.896C987.999 183.896 996.522 185.22 1004.47 187.868C1012.58 190.516 1019.61 194.488 1025.57 199.784C1031.53 204.914 1036.24 211.452 1039.72 219.396C1043.19 227.34 1044.93 236.69 1044.93 247.448C1044.93 249.268 1044.93 250.51 1044.93 251.172C1044.93 251.668 1044.77 252.744 1044.43 254.399H936.197C938.018 266.811 942.817 276.079 950.596 282.203C958.374 288.326 967.973 291.305 979.393 291.14C988.992 290.974 997.35 289.154 1004.47 285.678C1011.75 282.203 1017.13 275.831 1020.6 266.563L1042.95 269.542C1040.63 276.99 1037.32 283.361 1033.02 288.657C1028.88 293.953 1024 298.256 1018.37 301.566C1012.74 304.711 1006.53 307.111 999.749 308.766C993.129 310.255 986.178 311 978.896 311ZM979.393 203.011C973.931 203.011 968.47 204.087 963.008 206.238C957.547 208.224 952.747 211.369 948.61 215.672C944.472 219.809 941.162 225.105 938.68 231.56C936.363 238.014 935.535 245.627 936.197 254.399C937.19 251.089 938.266 248.441 939.425 246.455C940.749 244.469 942.238 242.979 943.893 241.986C945.714 240.993 947.7 240.331 949.851 240C952.168 239.669 954.816 239.504 957.795 239.504H1021.84C1020.02 226.76 1015.31 217.575 1007.69 211.948C1000.25 206.156 990.812 203.176 979.393 203.011Z" fill="black"/>
<path d="M872.405 132.259H896.733V309.51H872.405V132.259Z" fill="black"/>
<path d="M830.706 132.259H855.035V309.51H830.706V132.259Z" fill="black"/>
<path d="M734.315 207.229V184.39H739.032C741.846 184.39 744.742 183.231 747.721 180.914C750.865 178.597 753.679 175.618 756.161 171.977C758.644 168.336 760.713 164.281 762.368 159.813C764.023 155.344 764.85 150.959 764.85 146.656L789.427 146.407C789.096 153.358 787.441 159.978 784.462 166.267C781.483 172.391 777.097 177.356 771.305 181.162C769.153 182.486 766.505 183.48 763.361 184.142C760.382 184.638 757.651 185.134 755.168 185.631V186.128C757.651 185.631 760.382 185.217 763.361 184.886C766.505 184.555 769.319 184.39 771.801 184.39H815.742V207.229H784.214V273.263C784.214 278.725 785.538 282.366 788.186 284.186C790.834 285.841 794.061 286.669 797.868 286.669H821.7V309.508H799.109C790.999 309.508 784.379 308.763 779.249 307.274C774.118 305.619 770.146 303.136 767.333 299.826C764.519 296.516 762.533 292.296 761.375 287.165C760.382 281.869 759.885 275.663 759.885 268.547V207.229H734.315Z" fill="black"/>
<path d="M630.934 269.541C632.093 277.981 635.817 283.856 642.106 287.166C648.395 290.311 657.083 291.883 668.172 291.883C680.088 291.883 689.108 290.145 695.231 286.67C701.355 283.194 704.417 277.402 704.417 269.292C704.417 265.32 702.017 262.507 697.217 260.852C692.583 259.197 686.791 257.956 679.84 257.128C672.889 256.135 665.276 255.225 657.001 254.397C648.726 253.404 641.113 251.832 634.162 249.681C627.211 247.529 621.335 244.302 616.536 239.999C611.902 235.696 609.585 229.738 609.585 222.125C609.585 216.167 610.661 211.119 612.812 206.981C615.129 202.678 618.025 199.12 621.501 196.307C624.976 193.493 628.866 191.259 633.169 189.604C637.637 187.783 642.023 186.459 646.326 185.632C650.629 184.804 654.766 184.308 658.738 184.142C662.71 183.811 665.938 183.646 668.42 183.646C673.22 183.646 678.681 184.142 684.805 185.135C691.094 185.963 697.052 187.618 702.679 190.1C708.471 192.583 713.436 195.976 717.574 200.279C721.877 204.582 724.525 210.209 725.518 217.16L703.424 220.387C702.1 213.436 698.541 208.802 692.749 206.485C687.122 204.002 678.847 202.761 667.924 202.761C656.67 202.761 648.146 204.168 642.354 206.981C636.727 209.795 633.913 215.091 633.913 222.869C633.913 226.842 636.23 229.738 640.864 231.558C645.664 233.213 651.539 234.537 658.49 235.53C665.441 236.523 673.054 237.434 681.329 238.261C689.604 239.089 697.217 240.578 704.168 242.73C711.119 244.881 716.912 248.026 721.546 252.163C726.345 256.301 728.745 262.176 728.745 269.789C728.745 279.222 726.263 286.753 721.298 292.38C716.498 297.841 710.706 301.979 703.92 304.792C697.3 307.44 690.597 309.095 683.812 309.757C677.026 310.585 671.647 310.998 667.675 310.998C665.358 310.998 662.297 310.833 658.49 310.502C654.684 310.171 650.629 309.592 646.326 308.764C642.023 307.771 637.637 306.447 633.169 304.792C628.866 303.137 624.811 300.903 621.004 298.089C617.363 295.276 614.302 291.883 611.819 287.911C609.337 283.939 607.847 279.222 607.351 273.761L630.934 269.541Z" fill="black"/>
<path d="M518.289 310.999C509.352 310.999 501.904 309.261 495.946 305.786C489.988 302.31 485.271 297.676 481.796 291.884C478.32 286.091 475.838 279.389 474.348 271.776C473.024 264.163 472.362 256.301 472.362 248.192V184.888H496.691V248.192C496.691 261.432 499.173 271.114 504.138 277.237C509.269 283.361 516.882 286.422 526.977 286.422C529.625 286.422 532.935 285.76 536.907 284.436C540.879 282.947 544.686 280.216 548.327 276.244C551.968 272.272 555.03 266.728 557.512 259.611C560.16 252.329 561.484 242.896 561.484 231.311V184.888H585.813V309.013H561.484V285.181C561.484 282.533 561.65 279.72 561.981 276.741C562.477 273.762 562.974 271.031 563.47 268.548L562.974 268.3C561.815 274.093 560.078 279.637 557.76 284.933C555.443 290.063 552.464 294.615 548.823 298.587C545.182 302.393 540.797 305.455 535.666 307.772C530.701 309.923 524.909 310.999 518.289 310.999Z" fill="black"/>
<path d="M332 135.732H356.329V206.98C356.329 209.793 356.08 212.855 355.584 216.165C355.087 219.475 354.425 222.537 353.598 225.35L354.094 225.598C354.922 222.785 355.832 219.806 356.825 216.661C357.818 213.351 359.142 210.538 360.797 208.221C366.424 199.449 373.541 193.16 382.147 189.354C390.918 185.382 400.021 183.396 409.454 183.396C417.729 183.396 424.846 185.051 430.804 188.361C436.927 191.671 441.975 196.139 445.947 201.766C450.085 207.228 453.146 213.682 455.132 221.13C457.118 228.412 458.111 236.108 458.111 244.217V309.507H433.783V244.217C433.783 232.632 431.052 223.364 425.59 216.413C420.294 209.297 412.433 205.738 402.007 205.738C398.697 205.738 394.476 206.566 389.346 208.221C384.215 209.71 379.168 212.607 374.203 216.91C369.403 221.047 365.183 226.84 361.542 234.287C358.066 241.735 356.329 251.334 356.329 263.084V309.507H332V135.732Z" fill="black"/>
<defs>
<linearGradient id="paint0_linear_3_33" x1="352.5" y1="5.37661e-06" x2="-18.5" y2="323" gradientUnits="userSpaceOnUse">
<stop stop-color="#49F0FD"/>
<stop offset="0.460659" stop-color="#013CF1"/>
<stop offset="0.855186" stop-color="#A8C0FF"/>
</linearGradient>
</defs>
</svg>
